<svg width="129" height="24" viewBox="0 0 129 24" fill="none" xmlns="http://www.w3.org/2000/svg">
<path d="M0.445312 5.53719H1.75914L2.48884 9.89101V19.1584H1.17502V9.69661L0.445312 5.53719ZM8.35091 5.24512C9.61592 5.24512 10.6856 5.4968 11.5618 5.99924C12.4371 6.50168 13.1067 7.23608 13.5687 8.20057C14.0308 9.166 14.2619 10.3371 14.2619 11.7157V19.1584H12.948V11.9834C12.948 10.1512 12.5348 8.76875 11.7074 7.83619C10.88 6.90363 9.66383 6.43782 8.05885 6.43782C6.94034 6.43782 5.96271 6.6895 5.12782 7.19194C4.29293 7.69438 3.64401 8.39591 3.18196 9.2956C2.71991 10.1953 2.48884 11.2377 2.48884 12.421L1.80797 11.7646C1.88874 10.4507 2.21277 9.30781 2.78095 8.33487C3.34818 7.36192 4.11072 6.60404 5.0677 6.06028C6.02374 5.51747 7.11783 5.24512 8.35091 5.24512Z" fill="#FFEDDB"/>
<path d="M22.4339 19.4505C20.8769 19.4505 19.5067 19.1509 18.3233 18.5508C17.1391 17.9507 16.215 17.1158 15.5501 16.0452C14.8852 14.9745 14.5527 13.7424 14.5527 12.3478C14.5527 10.9372 14.8852 9.70037 15.5501 8.63821C16.215 7.57605 17.1391 6.74491 18.3233 6.14481C19.5067 5.5447 20.8778 5.24512 22.4339 5.24512C23.991 5.24512 25.3612 5.54564 26.5445 6.14481C27.7278 6.74491 28.6519 7.57605 29.3178 8.63821C29.9827 9.70037 30.3151 10.9372 30.3151 12.3478C30.3151 13.7424 29.9827 14.9745 29.3178 16.0452C28.6529 17.1158 27.7288 17.9507 26.5445 18.5508C25.3612 19.1509 23.991 19.4505 22.4339 19.4505ZM22.4339 18.2099C23.7637 18.2099 24.9151 17.9666 25.888 17.4801C26.861 16.9937 27.6151 16.3128 28.1505 15.4366C28.6858 14.5604 28.9534 13.5311 28.9534 12.3478C28.9534 11.1645 28.6858 10.1342 28.1505 9.25897C27.6151 8.3837 26.861 7.70189 25.888 7.21542C24.9151 6.72895 23.7637 6.48571 22.4339 6.48571C21.1201 6.48571 19.9734 6.72895 18.992 7.21542C18.0106 7.70189 17.2527 8.38276 16.7174 9.25897C16.1821 10.1342 15.9145 11.1645 15.9145 12.3478C15.9145 13.532 16.1821 14.5613 16.7174 15.4366C17.2527 16.3119 18.0106 16.9937 18.992 17.4801C19.9734 17.9666 21.121 18.2099 22.4339 18.2099Z" fill="#FFEDDB"/>
<path d="M30.291 5.53715H31.6048L32.3345 9.89097V19.1583H31.0207V9.64774L30.291 5.53715ZM39.9228 5.53715V6.82658C39.6636 6.72891 39.3302 6.65284 38.9254 6.59555C38.5197 6.53921 38.1224 6.51009 37.7336 6.51009C36.679 6.51009 35.7427 6.75708 34.9247 7.25201C34.1058 7.74693 33.469 8.44001 33.0154 9.33125C32.5609 10.2234 32.3345 11.2527 32.3345 12.4201L31.7993 11.5683C31.7993 10.6282 31.9448 9.77264 32.2369 9.00255C32.5289 8.23246 32.946 7.56756 33.4897 7.00783C34.0325 6.44811 34.673 6.01517 35.4112 5.70619C36.1493 5.39816 36.9635 5.24414 37.8557 5.24414C38.2286 5.24414 38.6098 5.27231 38.9986 5.3296C39.3884 5.38783 39.6955 5.45638 39.9228 5.53715Z" fill="#FFEDDB"/>
<path d="M40.5527 5.53715H41.8666L42.5963 9.89097V19.1583H41.2824V9.64774L40.5527 5.53715ZM50.1845 5.53715V6.82658C49.9253 6.72891 49.5928 6.65284 49.1871 6.59555C48.7814 6.53921 48.3842 6.51009 47.9954 6.51009C46.9407 6.51009 46.0044 6.75708 45.1855 7.25201C44.3666 7.74693 43.7298 8.44001 43.2762 9.33125C42.8217 10.2234 42.5953 11.2527 42.5953 12.4201L42.0601 11.5683C42.0601 10.6282 42.2056 9.77264 42.4977 9.00255C42.7897 8.23246 43.2068 7.56756 43.7505 7.00783C44.2933 6.44811 44.9338 6.01517 45.672 5.70619C46.4092 5.39816 47.2243 5.24414 48.1165 5.24414C48.4894 5.24414 48.8706 5.27231 49.2594 5.3296C49.6492 5.38783 49.9572 5.45638 50.1845 5.53715Z" fill="#FFEDDB"/>
<path d="M50.9414 5.53719H52.2553V11.1316L52.1576 11.4969V13.1507L52.2553 13.7105V23.1722H50.9414V5.53719ZM51.4035 12.3478C51.7923 10.9372 52.368 9.70037 53.1305 8.63821C53.8922 7.57605 54.8003 6.74491 55.855 6.14481C56.9087 5.5447 58.06 5.24512 59.3091 5.24512C60.6389 5.24512 61.8222 5.54564 62.86 6.14481C63.8977 6.74491 64.7166 7.57605 65.3168 8.63821C65.9169 9.70037 66.2164 10.9372 66.2164 12.3478C66.2164 13.7424 65.9159 14.9745 65.3168 16.0452C64.7166 17.1158 63.8977 17.9507 62.86 18.5508C61.8222 19.1509 60.638 19.4505 59.3091 19.4505C58.06 19.4505 56.9087 19.1546 55.855 18.563C54.8003 17.9713 53.8931 17.1402 53.1305 16.0696C52.368 14.999 51.7923 13.7584 51.4035 12.3478ZM64.8537 12.3478C64.8537 11.1804 64.6143 10.1587 64.1362 9.28339C63.6582 8.40812 63.0008 7.72255 62.1659 7.22857C61.3301 6.73364 60.3779 6.48665 59.3082 6.48665C58.2376 6.48665 57.2561 6.73364 56.3649 7.22857C55.4727 7.72349 54.6782 8.40812 53.9814 9.28339C53.2836 10.1587 52.7004 11.1804 52.2299 12.3478C52.7004 13.4992 53.2836 14.5172 53.9814 15.4C54.6782 16.2837 55.4727 16.973 56.3649 17.4679C57.2561 17.9629 58.2376 18.2099 59.3082 18.2099C60.3788 18.2099 61.331 17.9629 62.1659 17.4679C63.0008 16.973 63.6573 16.2846 64.1362 15.4C64.6143 14.5172 64.8537 13.4992 64.8537 12.3478Z" fill="#FFEDDB"/>
<path d="M73.3904 19.4504C72.1583 19.4504 71.112 19.1987 70.2527 18.6962C69.3934 18.1938 68.736 17.4594 68.2824 16.4949C67.8279 15.5304 67.6016 14.3584 67.6016 12.9797V5.53711H68.9154V12.713C68.9154 14.5293 69.3202 15.908 70.1316 16.848C70.9421 17.789 72.1263 18.2586 73.6825 18.2586C74.769 18.2586 75.7176 18.0079 76.5281 17.5045C77.3385 17.002 77.9715 16.3005 78.4251 15.4008C78.8787 14.5011 79.1059 13.4587 79.1059 12.2754L79.7868 12.6886C79.7051 14.0344 79.3858 15.2186 78.8261 16.2395C78.2664 17.2603 77.5207 18.0511 76.5881 18.6108C75.6565 19.1705 74.5906 19.4504 73.3904 19.4504ZM79.8366 19.1583L79.1069 14.8045V5.53711H80.4207V14.9989L81.1504 19.1583H79.8366Z" fill="#FFEDDB"/>
<path d="M82.6576 3.22671C82.3167 3.22671 82.0293 3.10932 81.7945 2.87359C81.5597 2.63881 81.4414 2.35895 81.4414 2.03401C81.4414 1.71001 81.5588 1.43015 81.7945 1.19442C82.0293 0.959639 82.3176 0.841309 82.6576 0.841309C82.9975 0.841309 83.2859 0.9587 83.5207 1.19442C83.7554 1.42921 83.8738 1.70907 83.8738 2.03401C83.8738 2.35895 83.7564 2.63787 83.5207 2.87359C83.2859 3.10932 82.9975 3.22671 82.6576 3.22671ZM82.0002 5.53698L82.6566 5.63465L83.3131 5.53698V19.1582H81.9992V5.53698H82.0002Z" fill="#FFEDDB"/>
<path d="M97.7383 15.34C97.7383 16.1514 97.4669 16.8642 96.9231 17.4803C96.3794 18.0963 95.6215 18.579 94.6486 18.9275C93.6756 19.2759 92.5487 19.4506 91.2677 19.4506C89.9379 19.4506 88.7499 19.244 87.7046 18.8307C86.6584 18.4175 85.832 17.8418 85.2234 17.1037C84.6148 16.3664 84.2871 15.5109 84.2383 14.538H85.5756C85.6733 15.2677 85.9766 15.9119 86.4875 16.4716C86.9984 17.0314 87.667 17.469 88.4944 17.7855C89.3218 18.102 90.2459 18.2597 91.2677 18.2597C92.7919 18.2597 94.024 17.9883 94.965 17.4446C95.9051 16.9018 96.3756 16.2002 96.3756 15.3409C96.3756 14.6272 96.0751 14.1003 95.476 13.7604C94.8759 13.4194 93.7817 13.1602 92.1927 12.9818L89.6148 12.6897C88.4475 12.5601 87.4989 12.3451 86.7692 12.0455C86.0395 11.7459 85.508 11.3562 85.1765 10.8782C84.844 10.4001 84.6778 9.8282 84.6778 9.16329C84.6778 8.33592 84.9295 7.63063 85.4319 7.04743C85.9344 6.46329 86.6396 6.01814 87.5478 5.7101C88.4559 5.40206 89.5012 5.24805 90.6854 5.24805C91.9824 5.24805 93.1375 5.44245 94.1518 5.83219C95.1651 6.22099 95.9718 6.7563 96.5719 7.43717C97.172 8.11804 97.496 8.91255 97.5449 9.82069H96.2066C96.1249 9.15578 95.8375 8.56788 95.3435 8.057C94.8486 7.54611 94.2006 7.14885 93.3976 6.86523C92.5947 6.58162 91.6743 6.43981 90.6366 6.43981C89.1612 6.43981 88.0258 6.66708 87.2313 7.12068C86.4368 7.57522 86.0395 8.23167 86.0395 9.09098C86.0395 9.77185 86.3147 10.295 86.8669 10.6603C87.4182 11.0247 88.3667 11.2886 89.7125 11.451L92.2669 11.7431C93.6287 11.8887 94.7115 12.1037 95.5144 12.3873C96.3174 12.671 96.8884 13.0485 97.2293 13.5181C97.5683 13.9857 97.7383 14.5943 97.7383 15.34Z" fill="#FFEDDB"/>
<path d="M96.9121 6.72894V5.99924L99.9765 5.63485L100.463 2.05957H101.29V5.53812H108.247V6.72988H101.29V14.659C101.29 15.9728 101.586 16.8932 102.178 17.42C102.77 17.9469 103.649 18.2108 104.817 18.2108C105.578 18.2108 106.248 18.1094 106.824 17.9065C107.399 17.7037 107.963 17.4078 108.514 17.019V18.3808C108.157 18.64 107.61 18.8832 106.873 19.1105C106.134 19.3377 105.368 19.4514 104.575 19.4514C103.439 19.4514 102.535 19.2485 101.862 18.8438C101.189 18.439 100.707 17.8868 100.415 17.19C100.123 16.4931 99.9775 15.7221 99.9775 14.8787V6.72894H96.9121Z" fill="#FFEDDB"/>
<path d="M116.053 19.4505C114.496 19.4505 113.126 19.1509 111.942 18.5508C110.758 17.9507 109.834 17.1158 109.169 16.0452C108.504 14.9745 108.172 13.7424 108.172 12.3478C108.172 10.9372 108.504 9.70037 109.169 8.63821C109.834 7.57605 110.758 6.74491 111.942 6.14481C113.126 5.5447 114.497 5.24512 116.053 5.24512C117.61 5.24512 118.98 5.54564 120.164 6.14481C121.347 6.74491 122.271 7.57605 122.937 8.63821C123.602 9.70037 123.934 10.9372 123.934 12.3478C123.934 13.7424 123.602 14.9745 122.937 16.0452C122.272 17.1158 121.348 17.9507 120.164 18.5508C118.979 19.1509 117.609 19.4505 116.053 19.4505ZM116.053 18.2099C117.383 18.2099 118.534 17.9666 119.507 17.4801C120.48 16.9937 121.234 16.3128 121.77 15.4366C122.305 14.5604 122.573 13.5311 122.573 12.3478C122.573 11.1645 122.305 10.1342 121.77 9.25897C121.234 8.3837 120.48 7.70189 119.507 7.21542C118.534 6.72895 117.383 6.48571 116.053 6.48571C114.739 6.48571 113.593 6.72895 112.611 7.21542C111.63 7.70189 110.872 8.38276 110.337 9.25897C109.801 10.1342 109.534 11.1645 109.534 12.3478C109.534 13.532 109.801 14.5613 110.337 15.4366C110.872 16.3119 111.63 16.9937 112.611 17.4801C113.592 17.9666 114.739 18.2099 116.053 18.2099Z" fill="#FFEDDB"/>
<path d="M128.002 3.1414C128.002 4.87598 126.594 6.2828 124.86 6.2828C123.126 6.2828 121.719 4.87504 121.719 3.1414C121.719 1.40682 123.127 0 124.86 0C126.619 0 128.002 1.43218 128.002 3.1414ZM122.133 3.1414C122.133 4.64965 123.352 5.86864 124.86 5.86864C126.368 5.86864 127.587 4.64965 127.587 3.1414C127.587 1.63315 126.368 0.414158 124.86 0.414158C123.327 0.415097 122.133 1.65851 122.133 3.1414ZM126.015 4.5116C125.726 4.72478 125.375 4.85062 124.947 4.85062C123.917 4.85062 123.276 4.19699 123.276 3.17897C123.276 2.09802 124.018 1.43218 125.035 1.43218C125.437 1.43218 125.751 1.54487 126.027 1.70828L125.814 2.1478C125.576 1.9966 125.324 1.92147 125.048 1.92147C124.369 1.92147 123.867 2.34877 123.867 3.15267C123.867 3.88144 124.306 4.35946 125.048 4.35946C125.349 4.35946 125.588 4.29654 125.827 4.10777L126.015 4.5116Z" fill="#FFEDDB"/>
</svg>
