<svg width="1283" height="14" viewBox="0 0 1283 14" fill="none" xmlns="http://www.w3.org/2000/svg">
<g opacity="0.6">
<path d="M4.05 1.632L3.456 2.55C4.239 2.9955 5.7105 3.9675 6.3585 4.467L6.993 3.549C6.399 3.117 4.8465 2.0775 4.05 1.632ZM2.025 11.2845L2.6595 12.378C3.9015 12.1215 5.7645 11.5005 7.128 10.704C9.288 9.435 11.151 7.6935 12.3255 5.8845L11.664 4.764C10.584 6.6675 8.802 8.436 6.561 9.7185C5.184 10.488 3.51 11.028 2.025 11.2845ZM2.025 4.6695L1.4175 5.5875C2.241 6.0195 3.699 6.951 4.3605 7.437L4.9815 6.492C4.401 6.0735 2.8215 5.1015 2.025 4.6695ZM15.3495 4.602V5.6415C15.606 5.6415 16.3755 5.6145 16.74 5.6145C17.4825 5.6145 21.2895 5.6145 21.735 5.6145C21.735 6.0195 21.735 10.5825 21.735 12C21.735 12.2835 21.735 12.6075 21.7215 12.7695H22.788C22.788 12.567 22.7745 12.2565 22.7745 12.0405C22.7745 10.893 22.7745 5.79 22.7745 5.3175C22.7745 5.061 22.7745 4.7775 22.788 4.629C22.599 4.629 22.2615 4.6425 21.951 4.6425C20.8575 4.6425 17.496 4.6425 16.74 4.6425C16.3755 4.6425 15.606 4.629 15.3495 4.602ZM15.6465 7.8015V8.8545C15.9165 8.8275 16.4025 8.8275 16.8615 8.8275C17.55 8.8275 21.87 8.8275 22.2615 8.8275V7.8555C21.87 7.8555 17.55 7.8555 16.8615 7.8555C16.4025 7.8555 15.9165 7.8285 15.6465 7.8015ZM15.201 11.163V12.243C15.417 12.243 15.8895 12.216 16.308 12.216C17.0775 12.216 21.6 12.216 22.275 12.216V11.217C21.681 11.217 17.0775 11.217 16.308 11.217C15.8355 11.217 15.417 11.19 15.201 11.163ZM31.2255 4.2375L30.2265 4.575C30.51 5.169 31.131 6.8835 31.2795 7.5045L32.2785 7.14C32.1165 6.5595 31.455 4.7775 31.2255 4.2375ZM36.1125 4.9935L34.9515 4.6155C34.7355 6.3435 34.047 8.0715 33.0885 9.246C31.9815 10.623 30.2535 11.649 28.701 12.108L29.592 13.0125C31.0905 12.4455 32.7375 11.3925 33.993 9.813C34.9515 8.598 35.5455 7.14 35.8965 5.655C35.9505 5.4795 36.018 5.2635 36.1125 4.9935ZM28.08 4.9125L27.081 5.2905C27.351 5.763 28.08 7.6395 28.296 8.3415L29.3085 7.9635C29.0655 7.248 28.35 5.4795 28.08 4.9125ZM47.2905 2.5905C47.2905 2.1045 47.6955 1.6995 48.1815 1.6995C48.6675 1.6995 49.086 2.1045 49.086 2.5905C49.086 3.0765 48.6675 3.4815 48.1815 3.4815C47.6955 3.4815 47.2905 3.0765 47.2905 2.5905ZM46.6695 2.5905C46.6695 3.4275 47.3445 4.1025 48.1815 4.1025C49.0185 4.1025 49.707 3.4275 49.707 2.5905C49.707 1.7535 49.0185 1.0785 48.1815 1.0785C47.3445 1.0785 46.6695 1.7535 46.6695 2.5905ZM40.824 1.875H39.5685C39.6225 2.199 39.6495 2.6445 39.6495 2.9685C39.6495 3.6975 39.6495 9.0975 39.6495 10.3935C39.6495 11.5005 40.23 11.973 41.256 12.162C41.823 12.2565 42.6195 12.2835 43.4295 12.2835C44.901 12.2835 46.926 12.189 48.1005 12.0135V10.7715C46.9665 11.0685 44.901 11.2035 43.47 11.2035C42.8085 11.2035 42.12 11.1765 41.688 11.0955C41.04 10.974 40.743 10.7985 40.743 10.0965C40.743 9.1245 40.743 3.6975 40.743 2.9685C40.743 2.5905 40.7835 2.199 40.824 1.875ZM40.2435 6.141L40.257 7.2615C41.9175 6.843 44.5905 6.06 46.2645 5.385C46.6695 5.223 47.1555 5.007 47.547 4.845L47.0745 3.765C46.683 4.008 46.2915 4.197 45.8865 4.386C44.3205 5.0475 41.877 5.79 40.2435 6.141ZM52.4745 2.118L51.6915 2.9415C52.704 3.603 54.378 5.061 55.0665 5.763L55.9035 4.899C55.161 4.1565 53.4195 2.7525 52.4745 2.118ZM51.3135 11.163L52.0155 12.27C54.27 11.8515 55.971 11.0145 57.3345 10.164C59.373 8.8815 60.939 7.0455 61.857 5.3715L61.209 4.2105C60.426 5.8845 58.7925 7.8825 56.7 9.192C55.4175 9.9885 53.6625 10.812 51.3135 11.163ZM72.09 1.2L71.361 1.5105C71.7255 2.0235 72.1845 2.8335 72.4545 3.387L73.1835 3.0495C72.9135 2.5095 72.4275 1.686 72.09 1.2ZM73.5615 0.66L72.8595 0.9705C73.2375 1.47 73.6695 2.2395 73.9665 2.82L74.6955 2.496C74.439 1.9965 73.926 1.1595 73.5615 0.66ZM72.981 3.8865L72.09 3.3465C71.8605 3.441 71.5635 3.4815 71.199 3.4815C70.7805 3.4815 67.446 3.4815 66.8925 3.4815L66.4605 4.4535H71.469C71.1855 5.682 70.362 7.4235 69.309 8.6655C68.0805 10.0965 66.4065 11.325 63.9225 12.054L64.8945 12.9315C67.4325 12 69.0525 10.758 70.281 9.2595C71.469 7.8015 72.306 5.9655 72.6705 4.6155C72.738 4.3995 72.873 4.089 72.981 3.8865ZM68.4585 1.848L67.2165 1.443C67.1355 1.7805 66.933 2.28 66.798 2.5095C66.204 3.7245 64.881 5.682 62.5455 7.0725L63.4905 7.7745C65.6505 6.33 67.068 4.3995 67.8645 2.9145C67.9995 2.658 68.2425 2.199 68.4585 1.848ZM80.9595 1.389H79.704C79.758 1.6995 79.785 2.199 79.785 2.5095C79.758 6.7755 78.651 9.057 76.9635 10.5825C76.5585 10.9605 76.0185 11.3385 75.5865 11.568L76.572 12.3645C79.2315 10.515 80.7165 7.9905 80.892 2.4825C80.9055 2.1585 80.9325 1.6995 80.9595 1.389ZM85.6575 4.197L84.888 3.8055C84.6585 3.846 84.402 3.873 84.0375 3.873H77.3685C76.842 3.873 76.2885 3.846 75.816 3.8055V4.9395C76.302 4.899 76.842 4.8855 77.382 4.8855H84.4965C84.4965 6.33 84.321 9.651 83.808 10.6905C83.6595 11.0145 83.403 11.136 83.025 11.136C82.4445 11.136 81.7425 11.0685 81.0135 10.974L81.1485 12.0945C81.8505 12.1485 82.6335 12.189 83.3085 12.189C84.051 12.189 84.483 11.946 84.753 11.3655C85.3605 10.0695 85.536 6.1545 85.5765 4.845C85.59 4.6695 85.617 4.4265 85.6575 4.197ZM87.831 6.1545V7.4775C88.263 7.4505 88.9785 7.4235 89.721 7.4235C90.72 7.4235 96.1065 7.4235 97.1325 7.4235C97.7265 7.4235 98.2935 7.464 98.577 7.4775V6.1545C98.2665 6.1815 97.794 6.2355 97.119 6.2355C96.12 6.2355 90.7065 6.2355 89.721 6.2355C88.9515 6.2355 88.2495 6.195 87.831 6.1545ZM103.356 10.812C103.356 11.3115 103.342 11.9865 103.275 12.4185H104.584C104.53 11.973 104.504 11.244 104.504 10.812C104.504 10.1775 104.49 5.061 104.49 2.9685C104.49 2.55 104.53 1.9695 104.584 1.551H103.262C103.329 1.983 103.356 2.577 103.356 2.9685C103.356 4.089 103.356 10.056 103.356 10.812ZM104.247 5.1015V6.2895C105.719 6.7485 108.243 7.707 109.782 8.5305L110.255 7.383C108.756 6.654 106.029 5.6145 104.247 5.1015Z" fill="white"/>
<path d="M119 2H1283" stroke="white" stroke-width="0.75"/>
<path d="M119 7H1283" stroke="white" stroke-width="0.75"/>
<path d="M119 11H1283" stroke="white" stroke-width="0.75"/>
</g>
</svg>
